<svg xmlns="http://www.w3.org/2000/svg" viewBox="0 0 100 100" fill="none" stroke="currentColor" stroke-width="1" stroke-linecap="round" stroke-linejoin="round" aria-label="Golden Wattle, national flower of Australia" role="img">
  <title>Golden Wattle · Acacia pycnantha · AU</title>
  
  <path d="M 18 84 Q 40 72 54 56 Q 68 40 82 22"></path>
  
  <g>
    <path d="M 28 78 C 22 78, 18 74, 16 70 C 22 72, 26 74, 28 78 Z"></path>
    <path d="M 34 74 C 36 70, 38 64, 38 60 C 38 66, 38 72, 34 74 Z"></path>
    <path d="M 46 60 C 40 60, 34 56, 32 52 C 38 54, 44 58, 46 60 Z"></path>
    <path d="M 52 56 C 54 50, 56 44, 56 40 C 56 46, 56 52, 52 56 Z"></path>
    <path d="M 64 42 C 58 42, 52 38, 50 34 C 56 36, 62 40, 64 42 Z"></path>
    <path d="M 70 38 C 72 34, 74 28, 74 24 C 74 30, 74 34, 70 38 Z"></path>
  </g>
  
  <g fill="currentColor" stroke="none">
    <circle cx="22" cy="80" r="1.4"></circle><circle cx="19.8" cy="81.8" r="1.4"></circle><circle cx="24.2" cy="81.8" r="1.4"></circle><circle cx="20.2" cy="77.8" r="1.4"></circle><circle cx="23.8" cy="77.8" r="1.4"></circle>
    <circle cx="38" cy="66" r="1.4"></circle><circle cx="35.8" cy="67.8" r="1.4"></circle><circle cx="40.2" cy="67.8" r="1.4"></circle><circle cx="36.2" cy="63.8" r="1.4"></circle><circle cx="39.8" cy="63.8" r="1.4"></circle>
    <circle cx="26" cy="64" r="1.4"></circle><circle cx="23.8" cy="65.8" r="1.4"></circle><circle cx="28.2" cy="65.8" r="1.4"></circle><circle cx="24.2" cy="61.8" r="1.4"></circle><circle cx="27.8" cy="61.8" r="1.4"></circle>
    <circle cx="54" cy="50" r="1.4"></circle><circle cx="51.8" cy="51.8" r="1.4"></circle><circle cx="56.2" cy="51.8" r="1.4"></circle><circle cx="52.2" cy="47.8" r="1.4"></circle><circle cx="55.8" cy="47.8" r="1.4"></circle>
    <circle cx="68" cy="34" r="1.4"></circle><circle cx="65.8" cy="35.8" r="1.4"></circle><circle cx="70.2" cy="35.8" r="1.4"></circle><circle cx="66.2" cy="31.8" r="1.4"></circle><circle cx="69.8" cy="31.8" r="1.4"></circle>
    <circle cx="80" cy="24" r="1.4"></circle><circle cx="77.8" cy="25.8" r="1.4"></circle><circle cx="82.2" cy="25.8" r="1.4"></circle><circle cx="78.2" cy="21.8" r="1.4"></circle><circle cx="81.8" cy="21.8" r="1.4"></circle>
  </g>
</svg>